<svg xmlns="http://www.w3.org/2000/svg" width="1600" height="1000" viewBox="0 0 1600 1000">
  <defs>
    <linearGradient id="wall" x1="0" y1="0" x2="0" y2="1"><stop stop-color="#25211c"/><stop offset="1" stop-color="#100e0c"/></linearGradient>
    <linearGradient id="wood" x1="0" y1="0" x2="1" y2="0"><stop stop-color="#372216"/><stop offset=".5" stop-color="#6a4025"/><stop offset="1" stop-color="#28180f"/></linearGradient>
    <radialGradient id="lamp"><stop stop-color="#d9ad63" stop-opacity=".24"/><stop offset="1" stop-color="#d9ad63" stop-opacity="0"/></radialGradient>
  </defs>
  <rect width="1600" height="1000" fill="url(#wall)"/>
  <circle cx="1240" cy="190" r="430" fill="url(#lamp)"/>
  <g opacity=".18" fill="#8f775f">
    <rect x="90" y="80" width="180" height="480" rx="10"/><rect x="300" y="80" width="180" height="480" rx="10"/>
    <rect x="1120" y="80" width="180" height="480" rx="10"/><rect x="1330" y="80" width="180" height="480" rx="10"/>
  </g>
  <rect y="790" width="1600" height="210" fill="#0b0908"/>
  <rect y="782" width="1600" height="15" fill="url(#wood)"/>
  <g opacity=".32" stroke="#b98556" stroke-width="2">
    <path d="M0 835 C280 800 470 890 790 835 S1300 790 1600 850"/><path d="M0 900 C250 860 520 955 820 895 S1320 850 1600 920"/>
  </g>
</svg>